<svg width="389" height="389" viewBox="0 0 389 389" fill="none" xmlns="http://www.w3.org/2000/svg">
<path d="M127.613 127.151L67 194.902L126.613 262.651L194.5 322L262.613 262.651L322 194.902L260.113 125.651L194 68L127.613 127.151Z" fill="#0074FF"/>
<path d="M63 64C63 64 102.891 59.1851 128.5 60C154.256 60.8196 194 68 194 68L193.5 194.264L130.25 194.632L67 195C67 195 59.7734 155.258 59 129.5C58.2309 103.885 63 64 63 64Z" fill="#80BAFF"/>
<path d="M195.5 195.764L258.75 195.382L322 195C322 195 329.227 234.742 330 260.5C330.769 286.115 326 326 326 326C326 326 285.81 330.769 260 330C234.048 329.226 194 322 194 322L195.5 195.764Z" fill="#80BAFF"/>
<path d="M63.0001 325.764C63.0001 325.764 58.2407 286.024 59 260.5C59.7663 234.742 67 195 67 195L130.25 195.5L193.5 196L194 322C194 322 154.259 329.273 128.5 330C102.877 330.723 63.0001 325.764 63.0001 325.764Z" fill="#80BAFF"/>
<path d="M195.5 194.264L194 67.9998C194 67.9998 234.651 59.6951 261 59.9998C285.024 60.2776 326 63.9999 326 63.9999C326 63.9999 330 106.506 330 131.5C330 156.494 322 195 322 195L258.75 194.632L195.5 194.264Z" fill="#80BAFF"/>
<path d="M193.5 195.764L63 325.764L194.5 329.764L193.5 195.764Z" fill="url(#paint0_linear_1_140)"/>
<path d="M195.5 196.264L326 325.764L194.5 330.264L195.5 196.264Z" fill="url(#paint1_linear_1_140)"/>
<path d="M195.5 194.264L326 63.7638L329.5 194.764L195.5 194.264Z" fill="url(#paint2_linear_1_140)"/>
<path d="M63 63.7637L193.5 194.264L59.5 195.764L63 63.7637Z" fill="url(#paint3_linear_1_140)"/>
<path d="M194 68V162H195L194 68Z" fill="#0074FF" fill-opacity="0.29"/>
<defs>
<linearGradient id="paint0_linear_1_140" x1="-21.5" y1="237.264" x2="203.991" y2="320.182" gradientUnits="userSpaceOnUse">
<stop stop-color="#3190FF"/>
<stop offset="1" stop-color="#80BAFF" stop-opacity="0"/>
</linearGradient>
<linearGradient id="paint1_linear_1_140" x1="430" y1="238.264" x2="185.135" y2="319.349" gradientUnits="userSpaceOnUse">
<stop stop-color="#3190FF"/>
<stop offset="1" stop-color="#80BAFF" stop-opacity="0"/>
</linearGradient>
<linearGradient id="paint2_linear_1_140" x1="293.5" y1="-14.7362" x2="332.44" y2="211.443" gradientUnits="userSpaceOnUse">
<stop stop-color="#3190FF"/>
<stop offset="1" stop-color="#80BAFF" stop-opacity="0"/>
</linearGradient>
<linearGradient id="paint3_linear_1_140" x1="118.5" y1="-10.2362" x2="43.7466" y2="200.052" gradientUnits="userSpaceOnUse">
<stop stop-color="#3190FF"/>
<stop offset="1" stop-color="#80BAFF" stop-opacity="0"/>
</linearGradient>
</defs>
</svg>
