<svg width="489" height="288" viewBox="0 0 489 288" fill="none" xmlns="http://www.w3.org/2000/svg">
<path d="M176.679 100.394L102.529 144.7L175.593 187.716L249.343 231.217L323.321 187.716L371.632 143.967L320.605 99.4275L248.798 57.2165L176.679 100.394Z" fill="#0074FF"/>
<path d="M244.876 143.217L321.882 186.888L244.876 231.217L168.109 186.888L244.876 143.217Z" fill="#66ABFC"/>
<line x1="244.115" y1="143.217" x2="244.114" y2="230.217" stroke="#0074FF" stroke-width="0.5"/>
<path d="M243.864 143.481L315.994 100.217L387.461 143.394L316.52 187.217L243.864 143.481Z" fill="#66ABFC"/>
<path d="M246.125 144.361L173.292 187.216L102.528 144.361L173.816 100.216L246.125 144.361Z" fill="#66ABFC"/>
<line y1="-0.25" x2="284.934" y2="-0.25" transform="matrix(-0.999993 0.00362198 -0.00434716 -0.999991 387.461 143.216)" stroke="#0074FF" stroke-width="0.5"/>
<path d="M243.864 144.717L168.137 100.439L243.892 56.9264L320.779 100.439L243.864 144.717Z" fill="#66ABFC"/>
<line x1="244.089" y1="143.308" x2="244.089" y2="56.9266" stroke="#0074FF" stroke-width="0.5"/>
<path d="M243.864 56.2165V144.216H113.836L243.864 56.2165Z" fill="#0074FF" fill-opacity="0.29"/>
<path d="M243.865 232.216V144.216H371.632L243.865 232.216Z" fill="#99C8FF" fill-opacity="0.73"/>
<path d="M91.2219 33.9524C91.2219 33.9524 110.065 32.2231 124.012 30.4524C134.948 29.064 141.439 29.5973 152.279 30.4524C172.777 32.0693 200.333 41.2165 200.333 41.2165L243.893 56.9265L113.836 144.597L101.964 144.597L91.2219 33.9524Z" fill="#80BAFF"/>
<path d="M371.632 143.952L388.027 143.952L398.768 253.452C398.768 253.452 379.607 256.215 367.109 256.952C356.052 257.605 349.754 257.581 338.842 256.952C316.423 255.661 304.223 253.261 284.569 247.452C267.382 242.373 244.458 230.978 244.458 230.978L371.632 143.952Z" fill="#80BAFF"/>
<path d="M91.2218 253.452L101.963 144.452L113.836 144.992L244.458 230.991C244.458 230.991 222.037 242.379 205.421 247.452C185.967 253.393 152.279 256.452 152.279 256.452C152.279 256.452 134.683 257.72 124.012 256.452C109.625 254.743 91.2218 253.452 91.2218 253.452Z" fill="#80BAFF"/>
<path d="M371.632 143.63L243.892 56.9259C243.892 56.9259 267.142 44.7698 284.569 39.4524C304.407 33.3992 316.997 31.8143 338.842 30.4524C350.339 29.7357 357.217 28.9804 368.24 30.4524C381.779 32.2605 398.768 33.9524 398.768 33.9524L388.592 143.63L371.632 143.63Z" fill="#80BAFF"/>
<path d="M101.963 144.716L91.2218 252.952L113.835 144.716H101.963Z" fill="url(#paint0_linear_1_174)"/>
<path d="M371.066 143.452L398.515 252.452C398.515 252.452 379.318 255.726 366.856 256.452C356.061 257.082 349.948 257.095 339.154 256.452C317.337 255.154 304.995 252.737 284.316 246.452C267.952 241.48 244.995 230.452 244.995 230.452L371.066 143.452Z" fill="url(#paint1_linear_1_174)"/>
<path d="M371.066 142.952L398.768 35.4385L388.027 143.702L371.066 142.952Z" fill="url(#paint2_linear_1_174)"/>
<path d="M91.2218 33.9524L113.835 144.452H101.963L91.2218 33.9524Z" fill="url(#paint3_linear_1_174)"/>
<defs>
<linearGradient id="paint0_linear_1_174" x1="84.1197" y1="171.544" x2="119.117" y2="174.312" gradientUnits="userSpaceOnUse">
<stop stop-color="#3190FF"/>
<stop offset="1" stop-color="#80BAFF" stop-opacity="0"/>
</linearGradient>
<linearGradient id="paint1_linear_1_174" x1="510.606" y1="171.744" x2="280.88" y2="305.173" gradientUnits="userSpaceOnUse">
<stop stop-color="#3190FF"/>
<stop offset="1" stop-color="#80BAFF" stop-opacity="0"/>
</linearGradient>
<linearGradient id="paint2_linear_1_174" x1="356.267" y1="8.6507" x2="370.862" y2="157.343" gradientUnits="userSpaceOnUse">
<stop stop-color="#3190FF"/>
<stop offset="1" stop-color="#80BAFF" stop-opacity="0"/>
</linearGradient>
<linearGradient id="paint3_linear_1_174" x1="235.229" y1="-31.329" x2="212.271" y2="159.708" gradientUnits="userSpaceOnUse">
<stop stop-color="#3190FF"/>
<stop offset="1" stop-color="#80BAFF" stop-opacity="0"/>
</linearGradient>
</defs>
</svg>
