<svg width="489" height="475" viewBox="0 0 489 475" fill="none" xmlns="http://www.w3.org/2000/svg">
<path d="M176.15 193.717L102 238.277L175.064 281.54L248.814 325.29L322.793 281.54L371.103 237.54L320.077 192.745L248.269 150.292L176.15 193.717Z" fill="#0074FF"/>
<path d="M244.348 236.785L321.353 280.707L244.348 325.29L167.58 280.707L244.348 236.785Z" fill="#66ABFC"/>
<line x1="243.586" y1="236.785" x2="243.586" y2="324.284" stroke="#0074FF" stroke-width="0.5"/>
<path d="M243.336 237.051L315.466 193.538L386.933 236.964L315.992 281.038L243.336 237.051Z" fill="#66ABFC"/>
<path d="M245.597 237.936L172.763 281.038L102 237.936L173.287 193.538L245.597 237.936Z" fill="#66ABFC"/>
<line y1="-0.25" x2="284.934" y2="-0.25" transform="matrix(-0.999993 0.00364276 -0.00432236 -0.999991 386.932 236.785)" stroke="#0074FF" stroke-width="0.5"/>
<path d="M243.336 238.294L167.608 193.763L243.364 150L320.25 193.763L243.336 238.294Z" fill="#66ABFC"/>
<line x1="243.56" y1="236.877" x2="243.56" y2="150" stroke="#0074FF" stroke-width="0.5"/>
<path d="M243.864 150.216V238.216H113.836L243.864 150.216Z" fill="#0074FF" fill-opacity="0.29"/>
<path d="M244 326V238H372L244 326Z" fill="#99C8FF" fill-opacity="0.73"/>
<path d="M91.2219 127.952C91.2219 127.952 110.065 126.223 124.012 124.452C134.948 123.064 141.439 123.597 152.279 124.452C172.777 126.069 200.333 135.217 200.333 135.217L243.893 150.927L113.836 238.597L101.964 238.597L91.2219 127.952Z" fill="#80BAFF"/>
<path d="M371.632 237.952L388.027 237.952L398.768 347.452C398.768 347.452 379.607 350.215 367.109 350.952C356.052 351.605 349.754 351.581 338.842 350.952C316.423 349.661 304.223 347.261 284.569 341.452C267.382 336.373 244.458 324.978 244.458 324.978L371.632 237.952Z" fill="#80BAFF"/>
<path d="M91.2218 347.452L101.963 238.452L113.836 238.992L244.458 324.991C244.458 324.991 222.037 336.379 205.421 341.452C185.967 347.393 152.279 350.452 152.279 350.452C152.279 350.452 134.683 351.72 124.012 350.452C109.625 348.743 91.2218 347.452 91.2218 347.452Z" fill="#80BAFF"/>
<path d="M371.632 237.63L243.892 150.926C243.892 150.926 267.142 138.77 284.569 133.452C304.407 127.399 316.997 125.814 338.842 124.452C350.339 123.736 368.24 124.452 368.24 124.452L398.768 127.952L388.592 237.63L371.632 237.63Z" fill="#80BAFF"/>
<path d="M101.963 238.716L91.2218 346.952L113.835 238.716H101.963Z" fill="url(#paint0_linear_1_174)"/>
<path d="M371.066 237.452L398.515 346.452C398.515 346.452 379.318 349.726 366.856 350.452C356.061 351.082 349.948 351.095 339.154 350.452C317.337 349.154 304.995 346.737 284.316 340.452C267.952 335.48 244.995 324.452 244.995 324.452L371.066 237.452Z" fill="url(#paint1_linear_1_174)"/>
<path d="M371.066 236.952L398.768 129.439L388.027 237.702L371.066 236.952Z" fill="url(#paint2_linear_1_174)"/>
<path d="M91.2218 127.952L113.835 238.452H101.963L91.2218 127.952Z" fill="url(#paint3_linear_1_174)"/>
<defs>
<linearGradient id="paint0_linear_1_174" x1="84.1197" y1="265.544" x2="119.117" y2="268.312" gradientUnits="userSpaceOnUse">
<stop stop-color="#3190FF"/>
<stop offset="1" stop-color="#80BAFF" stop-opacity="0"/>
</linearGradient>
<linearGradient id="paint1_linear_1_174" x1="510.606" y1="265.744" x2="280.88" y2="399.173" gradientUnits="userSpaceOnUse">
<stop stop-color="#3190FF"/>
<stop offset="1" stop-color="#80BAFF" stop-opacity="0"/>
</linearGradient>
<linearGradient id="paint2_linear_1_174" x1="356.267" y1="102.651" x2="370.862" y2="251.343" gradientUnits="userSpaceOnUse">
<stop stop-color="#3190FF"/>
<stop offset="1" stop-color="#80BAFF" stop-opacity="0"/>
</linearGradient>
<linearGradient id="paint3_linear_1_174" x1="235.229" y1="62.671" x2="212.271" y2="253.708" gradientUnits="userSpaceOnUse">
<stop stop-color="#3190FF"/>
<stop offset="1" stop-color="#80BAFF" stop-opacity="0"/>
</linearGradient>
</defs>
</svg>
