<svg width="288" height="475" viewBox="0 0 288 475" fill="none" xmlns="http://www.w3.org/2000/svg">
<path d="M187.425 171.621L143.12 99.5935L100.103 170.565L56.603 242.204L100.103 314.065L143.853 360.992L188.392 311.427L230.603 241.675L187.425 171.621Z" fill="#0074FF"/>
<path d="M144.603 237.866L100.932 312.666L56.603 237.866L100.932 163.296L144.603 237.866Z" fill="#66ABFC"/>
<line x1="144.603" y1="237.133" x2="57.603" y2="237.133" stroke="#0074FF" stroke-width="0.5"/>
<path d="M144.339 236.883L187.603 306.947L144.425 376.368L100.603 307.459L144.339 236.883Z" fill="#66ABFC"/>
<path d="M143.459 239.079L100.603 168.331L143.459 99.5935L187.603 168.84L143.459 239.079Z" fill="#66ABFC"/>
<line x1="144.353" y1="376.369" x2="143.255" y2="99.5949" stroke="#0074FF" stroke-width="0.5"/>
<path d="M143.103 236.883L187.38 163.323L230.893 236.91L187.38 311.595L143.103 236.883Z" fill="#66ABFC"/>
<line x1="144.511" y1="237.094" x2="230.893" y2="237.094" stroke="#0074FF" stroke-width="0.5"/>
<path d="M253.867 88.6102C253.867 88.6102 255.596 106.913 257.367 120.461C258.756 131.084 258.222 137.39 257.367 147.919C255.75 167.83 246.603 194.598 246.603 194.598L230.893 236.91L143.222 110.577L143.222 99.0445L253.867 88.6102Z" fill="#80BAFF"/>
<path d="M143.868 360.992L143.868 376.918L34.3671 387.351C34.3671 387.351 31.6047 368.739 30.8671 356.598C30.2146 345.858 30.2385 339.74 30.8671 329.141C32.1586 307.363 34.5583 295.513 40.3671 276.422C45.4468 259.726 56.8414 237.459 56.8414 237.459L143.868 360.992Z" fill="#80BAFF"/>
<path d="M34.367 88.6102L143.367 99.0442L142.828 110.577L56.8285 237.459C56.8285 237.459 45.4405 215.68 40.367 199.54C34.4269 180.643 31.367 147.919 31.367 147.919C31.367 147.919 30.0992 130.827 31.367 120.462C33.0763 106.487 34.367 88.6102 34.367 88.6102Z" fill="#80BAFF"/>
<path d="M144.19 360.992L230.894 236.91C230.894 236.91 243.05 259.494 248.367 276.422C254.42 295.692 256.005 307.922 257.367 329.141C258.084 340.309 258.839 346.99 257.367 357.697C255.559 370.849 253.867 387.351 253.867 387.351L144.19 377.467L144.19 360.992Z" fill="#80BAFF"/>
<path d="M143.103 99.0442L34.8671 88.6102L143.103 110.576L143.103 99.0442Z" fill="url(#paint0_linear_5_274)"/>
<path d="M144.367 360.443L35.3672 387.105C35.3672 387.105 32.0941 368.458 31.3672 356.353C30.7376 345.867 30.7247 339.929 31.3672 329.444C32.6657 308.252 35.0829 296.263 41.3672 276.176C46.34 260.281 57.3672 237.981 57.3672 237.981L144.367 360.443Z" fill="url(#paint1_linear_5_274)"/>
<path d="M144.867 360.443L252.381 387.351L144.117 376.918L144.867 360.443Z" fill="url(#paint2_linear_5_274)"/>
<path d="M253.867 88.6101L143.367 110.576L143.367 99.0441L253.867 88.6101Z" fill="url(#paint3_linear_5_274)"/>
<path d="M56.5 237.361L143 237.361L143 111.055L56.5 237.361Z" fill="#0074FF" fill-opacity="0.29"/>
<path d="M231 237.361L144 237.361L144 360.921L231 237.361Z" fill="#99C8FF" fill-opacity="0.73"/>
<defs>
<linearGradient id="paint0_linear_5_274" x1="116.275" y1="81.7115" x2="113.663" y2="115.719" gradientUnits="userSpaceOnUse">
<stop stop-color="#3190FF"/>
<stop offset="1" stop-color="#80BAFF" stop-opacity="0"/>
</linearGradient>
<linearGradient id="paint1_linear_5_274" x1="116.075" y1="495.987" x2="-11.6412" y2="269.615" gradientUnits="userSpaceOnUse">
<stop stop-color="#3190FF"/>
<stop offset="1" stop-color="#80BAFF" stop-opacity="0"/>
</linearGradient>
<linearGradient id="paint2_linear_5_274" x1="279.169" y1="346.068" x2="130.561" y2="361.084" gradientUnits="userSpaceOnUse">
<stop stop-color="#3190FF"/>
<stop offset="1" stop-color="#80BAFF" stop-opacity="0"/>
</linearGradient>
<linearGradient id="paint3_linear_5_274" x1="319.149" y1="228.494" x2="128.274" y2="204.88" gradientUnits="userSpaceOnUse">
<stop stop-color="#3190FF"/>
<stop offset="1" stop-color="#80BAFF" stop-opacity="0"/>
</linearGradient>
</defs>
</svg>
