<svg width="475" height="475" viewBox="0 0 475 475" fill="none" xmlns="http://www.w3.org/2000/svg">
<path d="M280.532 171.027L236.227 99.0003L193.21 169.972L149.71 241.611L193.21 313.471L236.96 360.399L281.499 310.833L323.71 241.081L280.532 171.027Z" fill="#0074FF"/>
<path d="M237.71 237.272L194.038 312.073L149.71 237.272L194.038 162.702L237.71 237.272Z" fill="#66ABFC"/>
<line x1="237.71" y1="236.539" x2="150.71" y2="236.539" stroke="#0074FF" stroke-width="0.5"/>
<path d="M237.446 236.289L280.71 306.354L237.532 375.775L193.71 306.865L237.446 236.289Z" fill="#66ABFC"/>
<path d="M236.566 238.486L193.71 167.737L236.566 99.0002L280.71 168.247L236.566 238.486Z" fill="#66ABFC"/>
<line x1="237.46" y1="375.776" x2="236.362" y2="99.0016" stroke="#0074FF" stroke-width="0.5"/>
<path d="M236.21 236.289L280.487 162.73L324 236.317L280.487 311.002L236.21 236.289Z" fill="#66ABFC"/>
<line x1="237.618" y1="236.5" x2="324" y2="236.5" stroke="#0074FF" stroke-width="0.5"/>
<path d="M347.048 88.6102C347.048 88.6102 348.777 106.913 350.548 120.461C351.936 131.084 351.403 137.39 350.548 147.919C348.931 167.83 339.783 194.598 339.783 194.598L324.073 236.91L236.403 110.577L236.403 99.0445L347.048 88.6102Z" fill="#80BAFF"/>
<path d="M237.048 360.992L237.048 376.918L127.548 387.351C127.548 387.351 124.785 368.739 124.048 356.598C123.395 345.858 123.419 339.74 124.048 329.141C125.339 307.363 127.739 295.513 133.548 276.422C138.627 259.726 150.022 237.459 150.022 237.459L237.048 360.992Z" fill="#80BAFF"/>
<path d="M127.547 88.6102L236.547 99.0442L236.008 110.577L150.009 237.459C150.009 237.459 138.621 215.68 133.547 199.54C127.607 180.643 124.547 147.919 124.547 147.919C124.547 147.919 123.28 130.827 124.547 120.462C126.257 106.487 127.547 88.6102 127.547 88.6102Z" fill="#80BAFF"/>
<path d="M237.37 360.992L324.074 236.91C324.074 236.91 336.23 259.494 341.548 276.422C347.601 295.692 349.186 307.922 350.548 329.141C351.264 340.309 352.02 346.99 350.548 357.697C348.74 370.849 347.048 387.351 347.048 387.351L237.37 377.467L237.37 360.992Z" fill="#80BAFF"/>
<path d="M236.284 99.0442L128.048 88.6102L236.284 110.576L236.284 99.0442Z" fill="url(#paint0_linear_5_274)"/>
<path d="M237.548 360.443L128.548 387.105C128.548 387.105 125.274 368.458 124.548 356.353C123.918 345.867 123.905 339.929 124.548 329.444C125.846 308.252 128.263 296.263 134.548 276.176C139.52 260.281 150.548 237.981 150.548 237.981L237.548 360.443Z" fill="url(#paint1_linear_5_274)"/>
<path d="M238.048 360.443L345.561 387.351L237.298 376.918L238.048 360.443Z" fill="url(#paint2_linear_5_274)"/>
<path d="M347.048 88.6101L236.548 110.576L236.548 99.0441L347.048 88.6101Z" fill="url(#paint3_linear_5_274)"/>
<path d="M149.68 237.361L236.18 237.361L236.18 111.055L149.68 237.361Z" fill="#0074FF" fill-opacity="0.29"/>
<path d="M324.18 237.361L237.18 237.361L237.18 360.921L324.18 237.361Z" fill="#99C8FF" fill-opacity="0.73"/>
<defs>
<linearGradient id="paint0_linear_5_274" x1="209.456" y1="81.7115" x2="206.844" y2="115.719" gradientUnits="userSpaceOnUse">
<stop stop-color="#3190FF"/>
<stop offset="1" stop-color="#80BAFF" stop-opacity="0"/>
</linearGradient>
<linearGradient id="paint1_linear_5_274" x1="209.256" y1="495.987" x2="81.5392" y2="269.615" gradientUnits="userSpaceOnUse">
<stop stop-color="#3190FF"/>
<stop offset="1" stop-color="#80BAFF" stop-opacity="0"/>
</linearGradient>
<linearGradient id="paint2_linear_5_274" x1="372.349" y1="346.068" x2="223.742" y2="361.084" gradientUnits="userSpaceOnUse">
<stop stop-color="#3190FF"/>
<stop offset="1" stop-color="#80BAFF" stop-opacity="0"/>
</linearGradient>
<linearGradient id="paint3_linear_5_274" x1="412.329" y1="228.494" x2="221.455" y2="204.88" gradientUnits="userSpaceOnUse">
<stop stop-color="#3190FF"/>
<stop offset="1" stop-color="#80BAFF" stop-opacity="0"/>
</linearGradient>
</defs>
</svg>
